<svg width="212" height="94" viewBox="0 0 212 94" xmlns="http://www.w3.org/2000/svg"><title>get_in_touch</title><g id="Page-1" fill="none" fill-rule="evenodd"><g id="Contact-Us"><g id="get_in_touch"><g id="to-hear-from-you.-+-We’d-love-+-Oval-41" fill="#333"><g id="to-hear-from-you.-+-We’d-love"><path d="M29.513 65.11H19.045v27.428h-7.947v-27.43H.582v-6.977h28.93v6.98zm9.838 27.913c-2.164 0-4.094-.355-5.79-1.066-1.697-.71-3.126-1.672-4.29-2.884a12.155 12.155 0 0 1-2.64-4.216c-.598-1.6-.897-3.27-.897-5.015 0-1.745.3-3.417.897-5.016a12.164 12.164 0 0 1 2.64-4.216c1.164-1.212 2.593-2.18 4.29-2.908 1.696-.727 3.626-1.09 5.79-1.09 2.165 0 4.088.363 5.768 1.09 1.68.727 3.1 1.696 4.264 2.908a12.47 12.47 0 0 1 2.666 4.216c.614 1.6.92 3.27.92 5.016a14.2 14.2 0 0 1-.896 5.015 12.178 12.178 0 0 1-2.64 4.216c-1.164 1.212-2.594 2.173-4.29 2.884-1.696.71-3.627 1.066-5.79 1.066zm-5.67-13.18c0 2.002.534 3.61 1.6 4.82 1.066 1.212 2.423 1.818 4.07 1.818.808 0 1.552-.16 2.23-.484a5.362 5.362 0 0 0 1.77-1.357c.5-.582.895-1.285 1.186-2.11a8.04 8.04 0 0 0 .436-2.688c0-2.004-.533-3.61-1.6-4.822-1.065-1.212-2.406-1.818-4.02-1.818-.81 0-1.56.162-2.255.485a5.279 5.279 0 0 0-1.793 1.357c-.5.58-.896 1.284-1.187 2.108a8.047 8.047 0 0 0-.436 2.69zm30.822 13.18c-2.617 0-4.595-.816-5.936-2.447-1.34-1.632-2.01-4.03-2.01-7.197V67.095h7.752v14.587c0 1.55.307 2.738.92 3.562.615.824 1.487 1.236 2.618 1.236 1.034 0 2.036-.274 3.005-.823.97-.55 1.826-1.502 2.57-2.86v-15.7h7.753v16.718c0 .776.12 1.317.364 1.624.242.306.67.492 1.284.556v6.542c-.742.162-1.372.267-1.89.315-.516.05-.985.073-1.405.073-2.778 0-4.36-1.082-4.75-3.247l-.144-1.552c-1.162 1.68-2.608 2.916-4.337 3.708-1.728.79-3.658 1.187-5.79 1.187zm21.178-13.23c0-1.745.307-3.416.92-5.016a12.495 12.495 0 0 1 2.666-4.216c1.163-1.21 2.593-2.172 4.29-2.882 1.695-.71 3.626-1.066 5.79-1.066 2.94 0 5.412.62 7.415 1.865 2.004 1.244 3.506 2.868 4.508 4.87l-7.56 2.278c-1.002-1.615-2.472-2.423-4.41-2.423-1.616 0-2.965.598-4.047 1.793-1.08 1.196-1.622 2.795-1.622 4.798 0 1.002.145 1.914.436 2.738.29.825.694 1.528 1.21 2.11a5.554 5.554 0 0 0 1.82 1.356 5.156 5.156 0 0 0 2.204.485c.97 0 1.857-.233 2.665-.702.808-.468 1.405-1.074 1.793-1.817l7.56 2.327c-.937 1.97-2.43 3.586-4.483 4.846-2.05 1.26-4.547 1.89-7.487 1.89-2.132 0-4.046-.363-5.743-1.09-1.696-.727-3.133-1.696-4.313-2.908a12.308 12.308 0 0 1-2.69-4.216c-.613-1.6-.92-3.272-.92-5.017zm53.647 12.745h-7.754V78.242c0-1.647-.323-2.86-.97-3.634-.645-.776-1.534-1.163-2.665-1.163-.452 0-.945.105-1.478.315-.533.21-1.05.517-1.55.92-.5.404-.962.88-1.382 1.43a6.3 6.3 0 0 0-.97 1.842v14.586h-7.753V57.162h7.754v14.2c.936-1.52 2.172-2.69 3.707-3.515 1.534-.824 3.222-1.235 5.064-1.235 1.713 0 3.094.298 4.144.896 1.05.598 1.858 1.357 2.423 2.278.566.92.945 1.954 1.14 3.1.193 1.148.29 2.27.29 3.37v16.282z" id="Touch"/><path d="M28.228 34.446c-2.742 2.54-5.906 3.808-9.494 3.808-2.37 0-4.603-.45-6.702-1.346a16.747 16.747 0 0 1-5.508-3.782c-1.574-1.624-2.818-3.58-3.732-5.864-.914-2.284-1.37-4.797-1.37-7.54 0-2.47.456-4.805 1.37-7.005.914-2.2 2.175-4.112 3.783-5.737 1.607-1.625 3.51-2.91 5.71-3.858s4.57-1.422 7.11-1.422c3.35 0 6.277.702 8.782 2.107 2.505 1.405 4.383 3.325 5.635 5.762l-6.194 4.67c-.812-1.625-1.988-2.885-3.528-3.782a9.765 9.765 0 0 0-5-1.346c-1.388 0-2.65.28-3.783.838a8.665 8.665 0 0 0-2.92 2.335c-.812 1-1.438 2.158-1.878 3.478-.44 1.32-.66 2.742-.66 4.265 0 1.557.236 2.995.71 4.315.474 1.32 1.134 2.462 1.98 3.427a9.031 9.031 0 0 0 3.02 2.26c1.168.54 2.463.812 3.885.812 3.25 0 6.177-1.507 8.783-4.52v-1.116h-7.006v-6.04h13.91V38h-6.904v-3.554zm24.47 4.062c-2.233 0-4.24-.364-6.016-1.092-1.777-.728-3.283-1.718-4.518-2.97a12.728 12.728 0 0 1-2.818-4.34 14.01 14.01 0 0 1-.964-5.154c0-1.93.32-3.748.964-5.457a13.23 13.23 0 0 1 2.792-4.493c1.22-1.287 2.717-2.302 4.494-3.047 1.776-.744 3.8-1.117 6.066-1.117 2.268 0 4.282.373 6.042 1.117 1.76.745 3.25 1.752 4.468 3.02a12.834 12.834 0 0 1 2.767 4.393c.626 1.658.94 3.4.94 5.23 0 .473-.018.938-.052 1.395a10.05 10.05 0 0 1-.152 1.193H47.013c.136 1.794.787 3.156 1.955 4.087a6.225 6.225 0 0 0 3.985 1.396c1.185 0 2.327-.288 3.427-.864 1.1-.575 1.835-1.354 2.208-2.335l6.904 1.93c-1.05 2.098-2.674 3.808-4.874 5.128-2.2 1.32-4.84 1.98-7.92 1.98zm5.636-16.348c-.17-1.692-.78-3.03-1.828-4.01-1.05-.982-2.352-1.473-3.91-1.473-1.59 0-2.9.5-3.934 1.498-1.032.998-1.633 2.327-1.802 3.985h11.474zm29.344 14.418c-1.116.474-2.394.914-3.833 1.32-1.438.407-2.885.61-4.34.61-1.016 0-1.972-.127-2.87-.38a6.4 6.4 0 0 1-2.36-1.22c-.677-.558-1.21-1.294-1.6-2.208-.388-.914-.583-2.014-.583-3.3V17.49h-3.4v-6.144h3.4V2.868h8.123v8.478h5.433v6.143h-5.433v11.118c0 .88.22 1.514.66 1.904.44.39 1 .583 1.676.583.61 0 1.236-.1 1.88-.304.642-.202 1.2-.422 1.675-.66l1.573 6.448zM102.655 38V11.346h8.123V38h-8.123zm0-29.7V.938h8.123V8.3h-8.123zM142.052 38h-8.123V23.023c0-1.76-.33-3.038-.99-3.833-.66-.795-1.532-1.193-2.615-1.193-.576 0-1.15.118-1.727.355a7.161 7.161 0 0 0-1.675.99 7.655 7.655 0 0 0-1.447 1.498 7.138 7.138 0 0 0-.99 1.878V38h-8.123V11.346h7.31v4.468c.982-1.59 2.37-2.818 4.164-3.68 1.794-.864 3.858-1.296 6.194-1.296 1.727 0 3.115.314 4.164.94 1.05.626 1.86 1.438 2.437 2.437.576.998.957 2.09 1.143 3.274.186 1.184.28 2.335.28 3.452V38z" id="Get-in"/></g></g><g id="Group"><g id="ic_send_black_24px"><path d="M197.497 56.008l14.538-45.303-42.84 20.7 10.992 9.585 23.647-20.852-17.357 26.32 11.02 9.55z" id="Shape" fill="#000"/><path d="M161.73 30.466L194.535-7.27l37.735 32.804-32.804 37.735-37.735-32.804z" id="Shape"/></g><path d="M165.5 46.5l-13 13" id="Line" stroke="#000" stroke-linecap="square"/><path d="M183.516 60.484L152.5 91.5" id="Line-Copy" stroke="#000" stroke-linecap="square"/><path d="M174.006 53.994L151.5 76.5" id="Line-Copy-2" stroke="#000" stroke-linecap="square"/></g></g></g></g></svg>