<svg width="84" height="96" viewBox="0 0 84 96" xmlns="http://www.w3.org/2000/svg"><title>timely</title><g id="Page-1" fill="none" fill-rule="evenodd"><g id="Home_screen_layout"><g id="Group-+-TIMELY"><g id="timely"><path d="M82.422 54c0 22.368-18.115 40.5-40.462 40.5C19.613 94.5 1.5 76.368 1.5 54s18.113-40.5 40.46-40.5S82.422 31.632 82.422 54" id="Fill-224" fill="#FFF"/><path d="M41.96 15C20.475 15 2.997 32.495 2.997 54S20.475 93 41.96 93s38.963-17.495 38.963-39S63.445 15 41.96 15zm0 81C18.824 96 0 77.16 0 54s18.824-42 41.96-42c23.137 0 41.96 18.841 41.96 42 0 23.16-18.823 42-41.96 42z" id="Fill-225" fill="#464A48"/><path d="M41.96 3c-2.478 0-4.495 2.02-4.495 4.5S39.482 12 41.96 12c2.48 0 4.496-2.02 4.496-4.5S44.44 3 41.96 3zm0 12c-4.13 0-7.493-3.364-7.493-7.5S37.83 0 41.96 0c4.132 0 7.493 3.365 7.493 7.5 0 4.136-3.36 7.5-7.493 7.5z" id="Fill-226" fill="#464A48"/><path d="M40.462 9h2.997v9H40.46V9z" id="Fill-227" fill="#464A48"/><path d="M41.96 84c-16.552 0-29.97-13.433-29.97-30 0-16.568 13.418-30 29.97-30s29.972 13.432 29.972 30c0 16.567-13.42 30-29.972 30z" id="Fill-228" fill="#4BC6AA"/><path d="M41.96 24v30h29.972c0-16.568-13.42-30-29.972-30" id="Fill-229" fill="#F5A623"/><path d="M50.952 54c0 4.97-4.027 9-8.992 9-4.965 0-8.99-4.03-8.99-9s4.025-9 8.99-9 8.992 4.03 8.992 9" id="Fill-230" fill="#FFF"/><path d="M41.96 52.5h29.972v3H41.96v-3z" id="Fill-231" fill="#464A48"/><path d="M71.493 26.56l-2.12-2.12 4.497-4.5 2.12 2.12-4.497 4.5" id="Fill-232" fill="#464A48"/><path d="M12.43 26.564L7.933 22.06l2.12-2.12 4.498 4.502-2.12 2.122" id="Fill-233" fill="#464A48"/><path d="M76.867 25.06l-5.995-6 2.12-2.12 5.994 6-2.12 2.12" id="Fill-234" fill="#464A48"/><path d="M7.054 25.06l-2.12-2.12 5.995-6 2.118 2.12-5.994 6" id="Fill-235" fill="#464A48"/><path d="M41.96 57c-1.653 0-2.997-1.346-2.997-3s1.344-3 2.997-3c1.653 0 2.997 1.346 2.997 3s-1.344 3-2.997 3" id="Fill-236" fill="#464A48"/><path d="M1.5 52.5h4.494v3H1.5v-3z" id="Fill-237" fill="#464A48"/><path d="M77.926 52.5h4.496v3h-4.496v-3z" id="Fill-238" fill="#464A48"/><path d="M40.462 90h2.997v4.5H40.46V90z" id="Fill-239" fill="#464A48"/></g></g></g></g></svg>