<svg id="Layer_2" data-name="Layer 2" xmlns="http://www.w3.org/2000/svg" xmlns:xlink="http://www.w3.org/1999/xlink" viewBox="0 0 1440.81 279.25"><defs><style>.cls-1{fill:#ffa700;}.cls-2{fill:#fff;}.cls-3,.cls-6{opacity:0.2;}.cls-4,.cls-5,.cls-6{fill:none;stroke:#ffa700;stroke-miterlimit:10;}.cls-5{opacity:0.5;}</style><symbol id="ptinflection" data-name="ptinflection" viewBox="0 0 9 9"><circle class="cls-1" cx="4.5" cy="4.5" r="3.5"/><path class="cls-2" d="M4.5,2A2.5,2.5,0,1,1,2,4.5,2.5,2.5,0,0,1,4.5,2m0-2A4.5,4.5,0,1,0,9,4.5,4.5,4.5,0,0,0,4.5,0h0Z"/></symbol></defs><title>top-banner-graph</title><g class="cls-3"><use width="9" height="9" transform="translate(412.55 270.25)" xlink:href="#ptinflection"/><polyline class="cls-4" points="0.42 238.75 69.07 175.76 151.23 238.75 202.58 219.26 266.64 250.75 331.6 193.76 417.05 274.75 489.05 162.26 589.54 150.26 656.33 229.75 711.89 190.76 802.99 220.76 852.03 250.75 880.53 184.76 993.02 172.76 1105.71 187.76 1160.44 238.75 1210.83 183.26 1243.51 121.76 1317.01 97.76 1353.01 160.76 1440.33 186.26"/><polyline class="cls-5" points="0.42 160.76 40.57 151.76 82.57 222.26 142.57 186.26 228.84 199.76 250.89 169.76 289.36 151.76 381.6 186.26 415.55 171.26 469.55 222.26 517.29 210.86 570.05 164.76 618.04 235.75 682.99 160.76 751.66 166.76 767.33 235.75 829.53 166.76 901.6 157.76 954.2 204.26 1083.87 154.76 1131.38 130.76 1210.83 133.76 1273.51 166.76 1288.23 76.76 1333.51 67.76 1440.33 151.76"/><polyline class="cls-6" points="0.42 0.27 96.07 151.76 175.67 265.75 228.52 169.76 331.6 97.76 395.6 228.26 433.16 198.26 463.55 142.76 541.55 114.26 579.05 256.75 656.33 151.76 717.53 124.76 793.53 145.76 846.03 193.76 922.99 220.76 1008.02 126.26 1079.5 133.01 1130.2 186.26 1222.51 235.75 1269.01 195.26 1330.51 177.26 1372.95 186.26 1440.42 105.26"/><use width="9" height="9" transform="translate(64.57 171.26)" xlink:href="#ptinflection"/><use width="9" height="9" transform="translate(146.73 234.26)" xlink:href="#ptinflection"/><use width="9" height="9" transform="translate(198.08 214.76)" xlink:href="#ptinflection"/><use width="9" height="9" transform="translate(262.14 246.25)" xlink:href="#ptinflection"/><use width="9" height="9" transform="translate(327.1 189.26)" xlink:href="#ptinflection"/><use width="9" height="9" transform="translate(484.55 157.76)" xlink:href="#ptinflection"/><use width="9" height="9" transform="translate(585.05 145.76)" xlink:href="#ptinflection"/><use width="9" height="9" transform="translate(651.83 225.26)" xlink:href="#ptinflection"/><use width="9" height="9" transform="translate(707.39 186.26)" xlink:href="#ptinflection"/><use width="9" height="9" transform="translate(798.49 216.26)" xlink:href="#ptinflection"/><use width="9" height="9" transform="translate(847.53 246.25)" xlink:href="#ptinflection"/><use width="9" height="9" transform="translate(1239.01 117.26)" xlink:href="#ptinflection"/><use width="9" height="9" transform="translate(1312.51 93.26)" xlink:href="#ptinflection"/><use width="9" height="9" transform="translate(1348.51 156.26)" xlink:href="#ptinflection"/></g></svg>